<svg width="12" height="17" viewBox="0 0 12 17" fill="none" xmlns="http://www.w3.org/2000/svg">
<path d="M2.63811 16.3114L0.974802 14.6638C0.847114 14.538 0.783269 14.3892 0.783269 14.2171C0.783269 14.0451 0.847114 13.8962 0.974802 13.7705L6.32762 8.5L0.974803 3.22953C0.847114 3.1038 0.78327 2.95492 0.78327 2.78288C0.78327 2.61083 0.847114 2.46195 0.974803 2.33623L2.63811 0.688585C2.7658 0.562861 2.91869 0.5 3.09678 0.5C3.27487 0.5 3.42776 0.562862 3.55545 0.688585L11.0252 8.05335C11.1529 8.17907 11.2167 8.32796 11.2167 8.5C11.2167 8.67204 11.1529 8.82093 11.0252 8.94665L3.55545 16.3114C3.42776 16.4371 3.27487 16.5 3.09678 16.5C2.91869 16.5 2.7658 16.4371 2.63811 16.3114Z" fill="white"/>
</svg>
