<svg width="15" height="23" viewBox="0 0 15 23" fill="none" xmlns="http://www.w3.org/2000/svg">
<path d="M2.5504 22.2407L0.263351 19.9752C0.0877792 19.8023 -6.55683e-06 19.5976 -6.54649e-06 19.361C-6.53615e-06 19.1245 0.0877792 18.9198 0.263351 18.7469L7.62348 11.5L0.263351 4.2531C0.0877798 4.08023 -5.86959e-06 3.87552 -5.85925e-06 3.63896C-5.84891e-06 3.4024 0.0877799 3.19768 0.263351 3.02481L2.5504 0.759305C2.72597 0.586435 2.93619 0.5 3.18107 0.5C3.42594 0.5 3.63617 0.586435 3.81174 0.759305L14.0827 10.8859C14.2582 11.0587 14.346 11.2634 14.346 11.5C14.346 11.7366 14.2582 11.9413 14.0827 12.1141L3.81174 22.2407C3.63616 22.4136 3.42594 22.5 3.18107 22.5C2.93619 22.5 2.72597 22.4136 2.5504 22.2407Z" fill="#16C078"/>
</svg>
