<svg width="28" height="29" viewBox="0 0 28 29" fill="none" xmlns="http://www.w3.org/2000/svg">
<path d="M22.4359 28.4998C21.2157 28.4998 19.5016 28.0585 16.9348 26.6247C13.8136 24.8747 11.3993 23.2591 8.29493 20.1634C5.30182 17.1727 3.84527 15.2365 1.80673 11.5277C-0.496239 7.34013 -0.103659 5.1451 0.335181 4.20696C0.857788 3.0857 1.6292 2.41507 2.62627 1.74944C3.19261 1.37845 3.79193 1.06044 4.41664 0.799424C4.47915 0.772548 4.53729 0.746923 4.58918 0.723798C4.89861 0.584421 5.36746 0.373794 5.96133 0.598796C6.35766 0.747548 6.71148 1.05193 7.26535 1.59881C8.40121 2.71882 9.9534 5.21323 10.526 6.43824C10.9105 7.26388 11.1649 7.80888 11.1655 8.42014C11.1655 9.13577 10.8054 9.68766 10.3685 10.2833C10.2866 10.3952 10.2053 10.502 10.1266 10.6058C9.65084 11.2308 9.54644 11.4114 9.6152 11.7339C9.75461 12.3821 10.7942 14.3115 12.5027 16.0159C14.2111 17.7203 16.0853 18.694 16.736 18.8328C17.0724 18.9046 17.2568 18.7959 17.9019 18.3034C17.9944 18.2328 18.0894 18.1596 18.1888 18.0865C18.8552 17.5909 19.3816 17.2402 20.0805 17.2402H20.0842C20.6925 17.2402 21.2132 17.504 22.0759 17.939C23.2011 18.5065 25.771 20.0384 26.8981 21.1753C27.4463 21.7278 27.752 22.0803 27.9014 22.4759C28.1265 23.0716 27.9146 23.5384 27.7764 23.851C27.7533 23.9028 27.7277 23.9597 27.7008 24.0228C27.4376 24.6463 27.1177 25.2442 26.745 25.8091C26.0804 26.8029 25.4072 27.5722 24.2832 28.0954C23.706 28.3683 23.0744 28.5066 22.4359 28.4998Z" fill="#00AEEF"/>
</svg>
