<?xml version="1.0" encoding="UTF-8"?>
<svg version="1.1" xmlns="http://www.w3.org/2000/svg" width="83" height="84">
<path d="M0 0 C27.39 0 54.78 0 83 0 C83 27.72 83 55.44 83 84 C55.61 84 28.22 84 0 84 C0 56.28 0 28.56 0 0 Z " fill="#FAFDFE" transform="translate(0,0)"/>
<path d="M0 0 C7.04034073 4.28763093 12.08650237 9.16356612 14.16796875 17.3203125 C15.46908368 26.57720307 13.01303716 33.88535292 8.04296875 41.6328125 C0.85259361 48.35425013 -5.81063861 49.87706718 -15.53515625 49.7890625 C-21.59306086 48.92774905 -25.61034939 45.96433945 -30.08203125 41.9453125 C-30.9328125 41.19507813 -31.78359375 40.44484375 -32.66015625 39.671875 C-36.52469167 35.48761183 -37.0899697 31.57491265 -37.45703125 26.0078125 C-37.53179687 24.93917969 -37.6065625 23.87054688 -37.68359375 22.76953125 C-37.73257813 21.96128906 -37.7815625 21.15304688 -37.83203125 20.3203125 C-37.50203125 20.9803125 -37.17203125 21.6403125 -36.83203125 22.3203125 C-36.17203125 22.3203125 -35.51203125 22.3203125 -34.83203125 22.3203125 C-34.50203125 20.0103125 -34.17203125 17.7003125 -33.83203125 15.3203125 C-34.82203125 15.9803125 -35.81203125 16.6403125 -36.83203125 17.3203125 C-36.43412731 10.9538495 -31.82731621 6.26308996 -27.45703125 2.0078125 C-18.76522008 -3.57978039 -9.38742156 -4.75186295 0 0 Z " fill="#38CEFD" transform="translate(51.83203125,19.6796875)"/>
<path d="M0 0 C-0.33 1.65 -0.66 3.3 -1 5 C0.98 5.33 2.96 5.66 5 6 C5 7.98 5 9.96 5 12 C4.37351563 12.02578125 3.74703125 12.0515625 3.1015625 12.078125 C2.28429688 12.13484375 1.46703125 12.1915625 0.625 12.25 C-0.18710937 12.29640625 -0.99921875 12.3428125 -1.8359375 12.390625 C-4.14125447 12.76639451 -4.14125447 12.76639451 -5.0078125 14.76953125 C-5.33523437 15.50558594 -5.66265625 16.24164063 -6 17 C-11.33831492 22.73868854 -16.81838732 26.61361267 -23.92578125 29.8046875 C-26.94866664 31.54668925 -27.94366381 33.75553884 -29 37 C-31.3125 37 -31.3125 37 -34 36 C-35.04006388 34.01164259 -35.68819486 32.06015111 -36.32421875 29.91015625 C-36.91843885 27.79437445 -36.91843885 27.79437445 -39 26 C-39.125 22.875 -39.125 22.875 -39 20 C-38.67 20.66 -38.34 21.32 -38 22 C-37.34 22 -36.68 22 -36 22 C-35.67 19.69 -35.34 17.38 -35 15 C-35.99 15.66 -36.98 16.32 -38 17 C-37.60209606 10.633537 -32.99528496 5.94277746 -28.625 1.6875 C-19.23415038 -4.34947476 -10.09500424 -4.48666855 0 0 Z " fill="#56D7FE" transform="translate(53,20)"/>
<path d="M0 0 C1.2684375 -0.00386719 1.2684375 -0.00386719 2.5625 -0.0078125 C4.84698944 0.11666289 6.80991574 0.48622543 9 1.125 C9 2.115 9 3.105 9 4.125 C7.20755859 4.25455078 7.20755859 4.25455078 5.37890625 4.38671875 C-7.07653649 5.39892369 -7.07653649 5.39892369 -18 11.125 C-18.886875 11.681875 -19.77375 12.23875 -20.6875 12.8125 C-27.64399647 19.76899647 -30.10759643 27.18203227 -30.3125 36.8125 C-30.21298571 46.33601713 -27.60103521 53.38412036 -21.0703125 60.3671875 C-13.59503607 66.71412032 -5.34066264 68.55963016 4.22265625 68.4609375 C13.09135608 67.67220101 20.38552116 63.93690929 26.37890625 57.3828125 C29.09240736 53.60352661 30.61301877 49.53669735 32 45.125 C32.33 44.135 32.66 43.145 33 42.125 C34.07981524 30.49485881 31.10613149 22.20505691 24 13.125 C25.32 12.465 26.64 11.805 28 11.125 C28.94511946 12.47385982 29.8806672 13.82942738 30.8125 15.1875 C31.33457031 15.94160156 31.85664062 16.69570313 32.39453125 17.47265625 C36.22134728 23.79481704 37.58445544 29.04378465 37.5625 36.3125 C37.56008301 37.14749023 37.55766602 37.98248047 37.55517578 38.84277344 C37.33345386 46.34653885 35.30613649 51.93245968 31 58.125 C30.52046875 58.81980469 30.0409375 59.51460937 29.546875 60.23046875 C24.25368929 67.05053496 16.43628269 71.48566256 8 73.125 C-3.40537695 74.22141373 -12.94999799 72.40434944 -22 65.125 C-29.61922542 57.74387538 -34.42432417 50.0516133 -35.203125 39.328125 C-35.38964823 27.57716149 -32.25223467 18.81251683 -24.1484375 10.14453125 C-17.36848768 3.81027534 -9.34283994 -0.02848427 0 0 Z " fill="#10B3F0" transform="translate(40,6.875)"/>
<path d="M0 0 C0 0.33 0 0.66 0 1 C-2.31 1 -4.62 1 -7 1 C-6.67 2.32 -6.34 3.64 -6 5 C-3.36 4.67 -0.72 4.34 2 4 C2 5.65 2 7.3 2 9 C0.64068359 9.61875 0.64068359 9.61875 -0.74609375 10.25 C-9.50571775 14.35772912 -17.48686132 18.73029197 -23 27 C-24.65 26.67 -26.3 26.34 -28 26 C-27.67 23.36 -27.34 20.72 -27 18 C-27.99 18.66 -28.98 19.32 -30 20 C-29.60209606 13.633537 -24.99528496 8.94277746 -20.625 4.6875 C-13.86783531 0.34360841 -7.95808238 -0.44030374 0 0 Z " fill="#46D1FD" transform="translate(45,17)"/>
<path d="M0 0 C0.72960937 0.24878906 1.45921875 0.49757812 2.2109375 0.75390625 C0.89082279 4.71425038 -0.53384008 7.11453672 -3.7890625 9.75390625 C-5.5525 10.46546875 -5.5525 10.46546875 -7.3515625 11.19140625 C-10.91868511 12.39925698 -10.91868511 12.39925698 -12.1640625 15.25390625 C-14.68046077 19.12528821 -18.46739869 19.63951495 -22.7890625 20.75390625 C-23.7890625 19.75390625 -23.7890625 19.75390625 -23.8515625 17.19140625 C-23.8309375 16.38703125 -23.8103125 15.58265625 -23.7890625 14.75390625 C-23.11101563 14.42519531 -22.43296875 14.09648438 -21.734375 13.7578125 C-15.18408068 10.4100859 -10.20994383 6.69176915 -5.078125 1.4140625 C-2.7890625 -0.24609375 -2.7890625 -0.24609375 0 0 Z " fill="#02AFEF" transform="translate(60.7890625,46.24609375)"/>
<path d="M0 0 C-2.52899559 7.37623713 -6.78563967 10.9560823 -13.3828125 14.7734375 C-17.02086748 16.4784364 -20.00504728 16.85203879 -24 17 C-19.93362987 8.6131116 -9.51069676 0 0 0 Z " fill="#F4FCFE" transform="translate(46,27)"/>
<path d="M0 0 C0.33 0 0.66 0 1 0 C1.4572729 14.27707598 1.4572729 14.27707598 -3.3125 19.5625 C-4.199375 20.366875 -5.08625 21.17125 -6 22 C-6.9075 22.9075 -7.815 23.815 -8.75 24.75 C-12 28 -12 28 -14.5625 28.0625 C-15.366875 28.041875 -16.17125 28.02125 -17 28 C-17.3125 25.75 -17.3125 25.75 -17 23 C-14.61304307 20.61304307 -12.60881096 19.22273572 -9.4375 18.0625 C-6.26292168 16.67870945 -4.9162808 14.83893452 -3 12 C-3 11.34 -3 10.68 -3 10 C-3.99 9.67 -4.98 9.34 -6 9 C-5.1875 6.0625 -5.1875 6.0625 -4 3 C-3.01 2.67 -2.02 2.34 -1 2 C-0.67 1.34 -0.34 0.68 0 0 Z " fill="#4AD1FC" transform="translate(65,37)"/>
<path d="M0 0 C-5.97749932 7.57278049 -12.97366341 13.34648281 -22 17 C-22.99 16.67 -23.98 16.34 -25 16 C-20.34391822 8.72487221 -9.66021359 -3.26993956 0 0 Z " fill="#F1FBFE" transform="translate(55,39)"/>
<path d="M0 0 C1.875 1.125 1.875 1.125 3 3 C3.39365568 6.14924548 3.52854531 8.11909116 1.875 10.875 C-0.91106042 12.54663625 -2.81988862 12.46376624 -6 12 C-8.35210784 9.88310295 -8.91810953 8.55958485 -9.375 5.4375 C-9 3 -9 3 -7.875 1.1875 C-5.12844028 -0.55198782 -3.18153026 -0.39769128 0 0 Z " fill="#07B0EF" transform="translate(61,7)"/>
<path d="M0 0 C0.66 0.33 1.32 0.66 2 1 C1.113125 1.66 0.22625 2.32 -0.6875 3 C-3.35479572 5.17265637 -4.89098166 7.31547826 -6.5625 10.3125 C-7.765625 12.39453125 -7.765625 12.39453125 -9 14 C-11.8125 14.5 -11.8125 14.5 -14 14 C-13.51420176 8.53476983 -13.51420176 8.53476983 -11.4375 6.375 C-8.57738285 4.76160058 -5.66878806 3.28487443 -2.70703125 1.8671875 C-1.0155053 1.11889274 -1.0155053 1.11889274 0 0 Z " fill="#0EB3F0" transform="translate(39,43)"/>
<path d="M0 0 C1.9453125 -0.29296875 1.9453125 -0.29296875 4.125 -0.1875 C5.40375 -0.125625 6.6825 -0.06375 8 0 C7.796875 1.8671875 7.796875 1.8671875 7 4 C4.890625 5.1953125 4.890625 5.1953125 2.25 6.125 C0.95835938 6.59292969 0.95835938 6.59292969 -0.359375 7.0703125 C-1.66648437 7.53050781 -1.66648437 7.53050781 -3 8 C-4.66951387 8.6595041 -6.33707199 9.32406164 -8 10 C-7.59007812 9.52949219 -7.18015625 9.05898438 -6.7578125 8.57421875 C-6.21898437 7.95160156 -5.68015625 7.32898437 -5.125 6.6875 C-4.59132812 6.07261719 -4.05765625 5.45773438 -3.5078125 4.82421875 C-1.8359553 2.86501788 -1.8359553 2.86501788 0 0 Z " fill="#09B1F0" transform="translate(49,33)"/>
<path d="M0 0 C0.33 0.66 0.66 1.32 1 2 C0.06553465 4.03144641 -0.93224776 6.03533587 -2 8 C-3.65 7.67 -5.3 7.34 -7 7 C-7.38218767 5.34385343 -7.71395102 3.67542976 -8 2 C-6.03177114 0.03177114 -2.65191291 0.33751619 0 0 Z " fill="#F0FBFE" transform="translate(26,49)"/>
<path d="M0 0 C-1.98 2.31 -3.96 4.62 -6 7 C-7.65 6.67 -9.3 6.34 -11 6 C-10.125 1.125 -10.125 1.125 -9 0 C-2.4 -1.2 -2.4 -1.2 0 0 Z " fill="#08B0EF" transform="translate(28,37)"/>
<path d="M0 0 C0 1.65 0 3.3 0 5 C-1.45381897 5.69699552 -2.91322953 6.38233866 -4.375 7.0625 C-5.18710937 7.44535156 -5.99921875 7.82820313 -6.8359375 8.22265625 C-7.55007812 8.47917969 -8.26421875 8.73570313 -9 9 C-9.66 8.67 -10.32 8.34 -11 8 C-10.525625 7.401875 -10.05125 6.80375 -9.5625 6.1875 C-7.83534256 3.99617076 -7.83534256 3.99617076 -7 1 C-4.53721199 -0.231394 -2.7204945 -0.07159196 0 0 Z " fill="#07B0EF" transform="translate(47,21)"/>
<path d="M0 0 C2.97 0.495 2.97 0.495 6 1 C6 2.98 6 4.96 6 7 C3.36 7.33 0.72 7.66 -2 8 C-1.34 5.36 -0.68 2.72 0 0 Z " fill="#F5FCFE" transform="translate(52,25)"/>
<path d="M0 0 C-0.32773371 3.03153686 -0.64134897 4.61573103 -2.75 6.875 C-5.59474935 8.29737468 -7.01616624 7.91172698 -10 7 C-10 6.34 -10 5.68 -10 5 C-8.57421875 3.7109375 -8.57421875 3.7109375 -6.6875 2.375 C-6.07261719 1.92898437 -5.45773438 1.48296875 -4.82421875 1.0234375 C-3 0 -3 0 0 0 Z " fill="#EDFAFE" transform="translate(32,22)"/>
<path d="M0 0 C0.33 0.66 0.66 1.32 1 2 C-2.60873007 7.63180602 -6.26399561 12.26827418 -13 14 C-15.2421875 13.58984375 -15.2421875 13.58984375 -17 13 C-16.40832031 12.76925781 -15.81664062 12.53851563 -15.20703125 12.30078125 C-8.42015304 9.49967164 -4.25100603 6.04090331 0 0 Z " fill="#20B8F0" transform="translate(62,54)"/>
<path d="M0 0 C2 2 2 2 2 4 C1.34 4.66 0.68 5.32 0 6 C0 6.33 0 6.66 0 7 C-3.3 6.67 -6.6 6.34 -10 6 C-9.67 5.34 -9.34 4.68 -9 4 C-6.93359375 3.3671875 -6.93359375 3.3671875 -4.4375 2.875 C-3.61121094 2.70742187 -2.78492188 2.53984375 -1.93359375 2.3671875 C-0.97646484 2.18542969 -0.97646484 2.18542969 0 2 C0 1.34 0 0.68 0 0 Z " fill="#30C9FB" transform="translate(47,62)"/>
<path d="M0 0 C0.99 0.33 1.98 0.66 3 1 C3.125 3.875 3.125 3.875 3 7 C2.34 7.66 1.68 8.32 1 9 C-0.32 8.34 -1.64 7.68 -3 7 C-1.125 1.125 -1.125 1.125 0 0 Z " fill="#EDFAFE" transform="translate(62,39)"/>
<path d="M0 0 C0.33 1.65 0.66 3.3 1 5 C-0.98 5 -2.96 5 -5 5 C-5.66 3.68 -6.32 2.36 -7 1 C-2.25 0 -2.25 0 0 0 Z " fill="#FDFEFE" transform="translate(36,62)"/>
<path d="M0 0 C0.66 0.33 1.32 0.66 2 1 C1.125 5.75 1.125 5.75 0 8 C-0.66 8 -1.32 8 -2 8 C-2.33 6.02 -2.66 4.04 -3 2 C-2.01 1.34 -1.02 0.68 0 0 Z " fill="#E0F6FE" transform="translate(17,34)"/>
<path d="M0 0 C2.31 0 4.62 0 7 0 C7.33 0.66 7.66 1.32 8 2 C5.35261084 3.4606285 4.10551666 4 1 4 C0.67 2.68 0.34 1.36 0 0 Z " fill="#E0F6FD" transform="translate(38,18)"/>
<path d="M0 0 C0.99 0.33 1.98 0.66 3 1 C0.03 3.475 0.03 3.475 -3 6 C-3.33 5.01 -3.66 4.02 -4 3 C-2.1875 1.4375 -2.1875 1.4375 0 0 Z " fill="#DAF4FD" transform="translate(52,57)"/>
<path d="M0 0 C0 3 0 3 -2.5 5.6875 C-3.325 6.450625 -4.15 7.21375 -5 8 C-5.66 7.67 -6.32 7.34 -7 7 C-4.69 4.69 -2.38 2.38 0 0 Z " fill="#2DCCFD" transform="translate(61,53)"/>
<path d="M0 0 C1.485 0.99 1.485 0.99 3 2 C3.1875 5.125 3.1875 5.125 3 8 C1.5 6.8125 1.5 6.8125 0 5 C-0.1875 2.3125 -0.1875 2.3125 0 0 Z " fill="#09B2F0" transform="translate(15,47)"/>
<path d="M0 0 C4.875 1.75 4.875 1.75 6 4 C4.02 4 2.04 4 0 4 C0 2.68 0 1.36 0 0 Z " fill="#0EB3F0" transform="translate(52,21)"/>
</svg>
